<svg width="17" height="12" viewBox="0 0 17 12" fill="none" xmlns="http://www.w3.org/2000/svg">
<path d="M0 2.625H7.44944L8.02247 3.75H0.573034L0 2.625ZM0.764045 4.875H8.21348L8.78652 6H1.33708L0.764045 4.875ZM13.1798 10.875C13.8139 10.875 14.3258 10.3725 14.3258 9.75C14.3258 9.1275 13.8139 8.625 13.1798 8.625C12.5456 8.625 12.0337 9.1275 12.0337 9.75C12.0337 10.3725 12.5456 10.875 13.1798 10.875ZM14.3258 4.125H12.4157V6H15.8234L14.3258 4.125ZM5.53933 10.875C6.17348 10.875 6.68539 10.3725 6.68539 9.75C6.68539 9.1275 6.17348 8.625 5.53933 8.625C4.90517 8.625 4.39326 9.1275 4.39326 9.75C4.39326 10.3725 4.90517 10.875 5.53933 10.875ZM14.7079 3L17 6V9.75H15.4719C15.4719 10.995 14.4481 12 13.1798 12C11.9115 12 10.8876 10.995 10.8876 9.75H7.83146C7.83146 10.995 6.8 12 5.53933 12C4.27101 12 3.24719 10.995 3.24719 9.75H1.7191V7.125H3.24719V8.25H3.82787C4.24809 7.7925 4.85933 7.5 5.53933 7.5C6.21933 7.5 6.83056 7.7925 7.25079 8.25H10.8876V1.5H1.7191C1.7191 0.6675 2.3991 0 3.24719 0H12.4157V3H14.7079Z" fill="#4E4E4E"/>
</svg>
