<svg width="28" height="27" viewBox="0 0 28 27" fill="none" xmlns="http://www.w3.org/2000/svg">
<path d="M13.9998 0.166687C15.7508 0.166687 17.4846 0.511564 19.1023 1.18163C20.72 1.85169 22.1898 2.83382 23.4279 4.07193C24.666 5.31004 25.6482 6.7799 26.3182 8.39757C26.9883 10.0152 27.3332 11.7491 27.3332 13.5C27.3332 17.0362 25.9284 20.4276 23.4279 22.9281C20.9274 25.4286 17.5361 26.8334 13.9998 26.8334C12.2489 26.8334 10.5151 26.4885 8.89739 25.8184C7.27972 25.1484 5.80986 24.1662 4.57175 22.9281C2.07126 20.4276 0.666504 17.0362 0.666504 13.5C0.666504 9.9638 2.07126 6.57241 4.57175 4.07193C7.07223 1.57144 10.4636 0.166687 13.9998 0.166687ZM13.9998 2.83335C11.1709 2.83335 8.45775 3.95716 6.45736 5.95755C4.45698 7.95794 3.33317 10.671 3.33317 13.5C3.33317 16.329 4.45698 19.0421 6.45736 21.0425C8.45775 23.0429 11.1709 24.1667 13.9998 24.1667C16.8288 24.1667 19.5419 23.0429 21.5423 21.0425C23.5427 19.0421 24.6665 16.329 24.6665 13.5C24.6665 10.671 23.5427 7.95794 21.5423 5.95755C19.5419 3.95716 16.8288 2.83335 13.9998 2.83335ZM13.9998 11.5C14.5303 11.5 15.039 11.7107 15.4141 12.0858C15.7891 12.4609 15.9998 12.9696 15.9998 13.5C15.9998 14.0305 15.7891 14.5392 15.4141 14.9142C15.039 15.2893 14.5303 15.5 13.9998 15.5C13.4694 15.5 12.9607 15.2893 12.5856 14.9142C12.2106 14.5392 11.9998 14.0305 11.9998 13.5C11.9998 12.9696 12.2106 12.4609 12.5856 12.0858C12.9607 11.7107 13.4694 11.5 13.9998 11.5ZM7.99984 11.5C8.53027 11.5 9.03898 11.7107 9.41405 12.0858C9.78912 12.4609 9.99984 12.9696 9.99984 13.5C9.99984 14.0305 9.78912 14.5392 9.41405 14.9142C9.03898 15.2893 8.53027 15.5 7.99984 15.5C7.4694 15.5 6.9607 15.2893 6.58562 14.9142C6.21055 14.5392 5.99984 14.0305 5.99984 13.5C5.99984 12.9696 6.21055 12.4609 6.58562 12.0858C6.9607 11.7107 7.4694 11.5 7.99984 11.5ZM19.9998 11.5C20.5303 11.5 21.039 11.7107 21.414 12.0858C21.7891 12.4609 21.9998 12.9696 21.9998 13.5C21.9998 14.0305 21.7891 14.5392 21.414 14.9142C21.039 15.2893 20.5303 15.5 19.9998 15.5C19.4694 15.5 18.9607 15.2893 18.5856 14.9142C18.2106 14.5392 17.9998 14.0305 17.9998 13.5C17.9998 12.9696 18.2106 12.4609 18.5856 12.0858C18.9607 11.7107 19.4694 11.5 19.9998 11.5Z" fill="#4E4E4E"/>
</svg>
