<svg width="18" height="18" viewBox="0 0 18 18" fill="none" xmlns="http://www.w3.org/2000/svg">
<path d="M12.5 11.3888L17.5 16.3888L16 17.8888L11 12.8888V12.0988L10.73 11.8188C9.59 12.7988 8.11 13.3888 6.5 13.3888C4.77609 13.3888 3.12279 12.704 1.90381 11.485C0.684819 10.266 0 8.6127 0 6.88879C0 5.16489 0.684819 3.51159 1.90381 2.2926C3.12279 1.07361 4.77609 0.388794 6.5 0.388794C8.22391 0.388794 9.87721 1.07361 11.0962 2.2926C12.3152 3.51159 13 5.16489 13 6.88879C13 8.49879 12.41 9.97879 11.43 11.1188L11.71 11.3888H12.5ZM6.5 11.3888C9 11.3888 11 9.38879 11 6.88879C11 4.38879 9 2.38879 6.5 2.38879C4 2.38879 2 4.38879 2 6.88879C2 9.38879 4 11.3888 6.5 11.3888ZM9 7.38879H7V9.38879H6V7.38879H4V6.38879H6V4.38879H7V6.38879H9V7.38879Z" fill="white"/>
</svg>
