<svg width="18" height="18" viewBox="0 0 18 18" fill="none" xmlns="http://www.w3.org/2000/svg">
<path d="M12.5 11.5H11.71L11.43 11.23C12.41 10.09 13 8.61 13 7C13 5.27609 12.3152 3.62279 11.0962 2.40381C9.87721 1.18482 8.22391 0.5 6.5 0.5C4.77609 0.5 3.12279 1.18482 1.90381 2.40381C0.684819 3.62279 0 5.27609 0 7C0 8.72391 0.684819 10.3772 1.90381 11.5962C3.12279 12.8152 4.77609 13.5 6.5 13.5C8.11 13.5 9.59 12.91 10.73 11.93L11 12.21V13L16 18L17.5 16.5L12.5 11.5ZM6.5 11.5C4 11.5 2 9.5 2 7C2 4.5 4 2.5 6.5 2.5C9 2.5 11 4.5 11 7C11 9.5 9 11.5 6.5 11.5ZM4 6.5H9V7.5H4V6.5Z" fill="white"/>
</svg>
