<svg width="30" height="21" viewBox="0 0 30 21" fill="none" xmlns="http://www.w3.org/2000/svg">
<path d="M15.0002 6.5C13.9393 6.5 12.9219 6.92143 12.1717 7.67157C11.4216 8.42172 11.0002 9.43913 11.0002 10.5C11.0002 11.5609 11.4216 12.5783 12.1717 13.3284C12.9219 14.0786 13.9393 14.5 15.0002 14.5C16.061 14.5 17.0784 14.0786 17.8286 13.3284C18.5787 12.5783 19.0002 11.5609 19.0002 10.5C19.0002 9.43913 18.5787 8.42172 17.8286 7.67157C17.0784 6.92143 16.061 6.5 15.0002 6.5ZM15.0002 17.1667C13.2321 17.1667 11.5364 16.4643 10.2861 15.214C9.03588 13.9638 8.3335 12.2681 8.3335 10.5C8.3335 8.73189 9.03588 7.0362 10.2861 5.78595C11.5364 4.53571 13.2321 3.83333 15.0002 3.83333C16.7683 3.83333 18.464 4.53571 19.7142 5.78595C20.9645 7.0362 21.6668 8.73189 21.6668 10.5C21.6668 12.2681 20.9645 13.9638 19.7142 15.214C18.464 16.4643 16.7683 17.1667 15.0002 17.1667ZM15.0002 0.5C8.3335 0.5 2.64016 4.64667 0.333496 10.5C2.64016 16.3533 8.3335 20.5 15.0002 20.5C21.6668 20.5 27.3602 16.3533 29.6668 10.5C27.3602 4.64667 21.6668 0.5 15.0002 0.5Z" fill="#4E4E4E"/>
</svg>
