<svg width="120" height="29" viewBox="0 0 120 29" fill="none" xmlns="http://www.w3.org/2000/svg">
<g filter="url(#filter0_d_649_46)">
<path d="M10.7902 3.87537C11.5502 2.97854 12.6663 2.46143 13.8418 2.46143H112.667C114.876 2.46143 116.667 4.25229 116.667 6.46143V20.4614C116.667 22.6706 114.876 24.4614 112.667 24.4614H13.4031C12.1892 24.4614 11.041 23.9102 10.2818 22.963L4.7284 16.0339C3.53102 14.5399 3.56021 12.407 4.79803 10.9463L10.7902 3.87537Z" fill="#C90000"/>
<path d="M13.8414 2.96143H112.667C114.6 2.96143 116.167 4.52843 116.167 6.46143V20.4614C116.167 22.3944 114.6 23.9614 112.667 23.9614H13.403C12.4071 23.9614 11.462 23.5373 10.8004 22.8013L10.6715 22.6499L5.11877 15.7212C4.13659 14.4957 4.0976 12.779 4.98889 11.5161L5.17932 11.27L11.1715 4.19873C11.8364 3.4141 12.813 2.96154 13.8414 2.96143Z" stroke="#FFE100"/>
</g>
<path d="M12.6666 10.0864H20.1161L20.6891 11.2114H13.2397L12.6666 10.0864ZM13.4307 12.3364H20.8801L21.4531 13.4614H14.0037L13.4307 12.3364ZM25.8464 18.3364C26.4806 18.3364 26.9925 17.8339 26.9925 17.2114C26.9925 16.5889 26.4806 16.0864 25.8464 16.0864C25.2122 16.0864 24.7003 16.5889 24.7003 17.2114C24.7003 17.8339 25.2122 18.3364 25.8464 18.3364ZM26.9925 11.5864H25.0824V13.4614H28.49L26.9925 11.5864ZM18.206 18.3364C18.8401 18.3364 19.352 17.8339 19.352 17.2114C19.352 16.5889 18.8401 16.0864 18.206 16.0864C17.5718 16.0864 17.0599 16.5889 17.0599 17.2114C17.0599 17.8339 17.5718 18.3364 18.206 18.3364ZM27.3745 10.4614L29.6666 13.4614V17.2114H28.1385C28.1385 18.4564 27.1147 19.4614 25.8464 19.4614C24.5781 19.4614 23.5543 18.4564 23.5543 17.2114H20.4981C20.4981 18.4564 19.4666 19.4614 18.206 19.4614C16.9376 19.4614 15.9138 18.4564 15.9138 17.2114H14.3857V14.5864H15.9138V15.7114H16.4945C16.9147 15.2539 17.526 14.9614 18.206 14.9614C18.886 14.9614 19.4972 15.2539 19.9174 15.7114H23.5543V8.96143H14.3857C14.3857 8.12893 15.0657 7.46143 15.9138 7.46143H25.0824V10.4614H27.3745Z" fill="white"/>
<path d="M39.3266 9.12143L39.1346 10.1894H35.5946L35.1506 12.7214H37.9106L37.7186 13.7774H34.9586L34.3106 17.4614H32.9426L34.4186 9.12143H39.3266ZM41.4464 12.0134C41.7184 11.6134 42.0384 11.3014 42.4064 11.0774C42.7824 10.8534 43.1984 10.7414 43.6544 10.7414L43.4024 12.1574H43.0544C42.5264 12.1574 42.1024 12.2894 41.7824 12.5534C41.4624 12.8174 41.2384 13.2734 41.1104 13.9214L40.4864 17.4614H39.1184L40.2824 10.8494H41.6504L41.4464 12.0134ZM47.7559 10.7414C48.5799 10.7414 49.2359 10.9734 49.7239 11.4374C50.2199 11.9014 50.4679 12.5254 50.4679 13.3094C50.4679 13.4934 50.4479 13.7134 50.4079 13.9694C50.3759 14.1454 50.3199 14.3614 50.2399 14.6174H45.1879C45.1799 14.6734 45.1759 14.7574 45.1759 14.8694C45.1759 15.3414 45.3199 15.7174 45.6079 15.9974C45.9039 16.2774 46.2879 16.4174 46.7599 16.4174C47.5039 16.4174 48.0759 16.1094 48.4759 15.4934H49.9519C49.6479 16.1014 49.1999 16.6014 48.6079 16.9934C48.0159 17.3774 47.3319 17.5694 46.5559 17.5694C46.0039 17.5694 45.5199 17.4614 45.1039 17.2454C44.6879 17.0294 44.3639 16.7214 44.1319 16.3214C43.8999 15.9134 43.7839 15.4374 43.7839 14.8934C43.7839 14.6614 43.8079 14.4134 43.8559 14.1494C43.9759 13.4694 44.2199 12.8734 44.5879 12.3614C44.9559 11.8414 45.4119 11.4414 45.9559 11.1614C46.5079 10.8814 47.1079 10.7414 47.7559 10.7414ZM49.0399 13.6334C49.0559 13.4894 49.0639 13.3854 49.0639 13.3214C49.0639 12.8814 48.9159 12.5334 48.6199 12.2774C48.3319 12.0214 47.9559 11.8934 47.4919 11.8934C47.0039 11.8934 46.5639 12.0494 46.1719 12.3614C45.7799 12.6734 45.5119 13.0974 45.3679 13.6334H49.0399ZM55.1621 10.7414C55.9861 10.7414 56.6421 10.9734 57.1301 11.4374C57.6261 11.9014 57.8741 12.5254 57.8741 13.3094C57.8741 13.4934 57.8541 13.7134 57.8141 13.9694C57.7821 14.1454 57.7261 14.3614 57.6461 14.6174H52.5941C52.5861 14.6734 52.5821 14.7574 52.5821 14.8694C52.5821 15.3414 52.7261 15.7174 53.0141 15.9974C53.3101 16.2774 53.6941 16.4174 54.1661 16.4174C54.9101 16.4174 55.4821 16.1094 55.8821 15.4934H57.3581C57.0541 16.1014 56.6061 16.6014 56.0141 16.9934C55.4221 17.3774 54.7381 17.5694 53.9621 17.5694C53.4101 17.5694 52.9261 17.4614 52.5101 17.2454C52.0941 17.0294 51.7701 16.7214 51.5381 16.3214C51.3061 15.9134 51.1901 15.4374 51.1901 14.8934C51.1901 14.6614 51.2141 14.4134 51.2621 14.1494C51.3821 13.4694 51.6261 12.8734 51.9941 12.3614C52.3621 11.8414 52.8181 11.4414 53.3621 11.1614C53.9141 10.8814 54.5141 10.7414 55.1621 10.7414ZM56.4461 13.6334C56.4621 13.4894 56.4701 13.3854 56.4701 13.3214C56.4701 12.8814 56.3221 12.5334 56.0261 12.2774C55.7381 12.0214 55.3621 11.8934 54.8981 11.8934C54.4101 11.8934 53.9701 12.0494 53.5781 12.3614C53.1861 12.6734 52.9181 13.0974 52.7741 13.6334H56.4461ZM66.334 9.12143C67.11 9.12143 67.782 9.25343 68.35 9.51743C68.918 9.78143 69.35 10.1614 69.646 10.6574C69.95 11.1534 70.102 11.7414 70.102 12.4214C70.102 12.7334 70.074 13.0334 70.018 13.3214C69.866 14.1694 69.554 14.9054 69.082 15.5294C68.61 16.1534 68.01 16.6334 67.282 16.9694C66.554 17.2974 65.746 17.4614 64.858 17.4614H62.134L63.61 9.12143H66.334ZM65.05 16.4174C66.018 16.4174 66.81 16.1414 67.426 15.5894C68.05 15.0374 68.446 14.2814 68.614 13.3214C68.662 13.0414 68.686 12.7814 68.686 12.5414C68.686 11.8054 68.47 11.2374 68.038 10.8374C67.606 10.4294 66.974 10.2254 66.142 10.2254H64.786L63.694 16.4174H65.05ZM74.6738 10.7414C75.4978 10.7414 76.1538 10.9734 76.6418 11.4374C77.1378 11.9014 77.3858 12.5254 77.3858 13.3094C77.3858 13.4934 77.3658 13.7134 77.3258 13.9694C77.2938 14.1454 77.2378 14.3614 77.1578 14.6174H72.1058C72.0978 14.6734 72.0938 14.7574 72.0938 14.8694C72.0938 15.3414 72.2378 15.7174 72.5258 15.9974C72.8218 16.2774 73.2058 16.4174 73.6778 16.4174C74.4218 16.4174 74.9938 16.1094 75.3938 15.4934H76.8698C76.5658 16.1014 76.1178 16.6014 75.5258 16.9934C74.9338 17.3774 74.2498 17.5694 73.4738 17.5694C72.9218 17.5694 72.4378 17.4614 72.0218 17.2454C71.6058 17.0294 71.2818 16.7214 71.0498 16.3214C70.8178 15.9134 70.7018 15.4374 70.7018 14.8934C70.7018 14.6614 70.7258 14.4134 70.7738 14.1494C70.8938 13.4694 71.1378 12.8734 71.5058 12.3614C71.8738 11.8414 72.3298 11.4414 72.8738 11.1614C73.4258 10.8814 74.0258 10.7414 74.6738 10.7414ZM75.9578 13.6334C75.9738 13.4894 75.9818 13.3854 75.9818 13.3214C75.9818 12.8814 75.8338 12.5334 75.5378 12.2774C75.2498 12.0214 74.8738 11.8934 74.4098 11.8934C73.9218 11.8934 73.4818 12.0494 73.0898 12.3614C72.6978 12.6734 72.4298 13.0974 72.2858 13.6334H75.9578ZM80.9881 8.58143L79.4161 17.4614H78.0481L79.6201 8.58143H80.9881ZM83.2282 9.97343C83.0122 9.97343 82.8362 9.90543 82.7002 9.76943C82.5642 9.63343 82.4962 9.46143 82.4962 9.25343C82.4962 8.97343 82.6002 8.73343 82.8082 8.53343C83.0242 8.32543 83.2682 8.22143 83.5402 8.22143C83.7562 8.22143 83.9282 8.28943 84.0562 8.42543C84.1922 8.56143 84.2602 8.73343 84.2602 8.94143C84.2602 9.22143 84.1562 9.46543 83.9482 9.67343C83.7402 9.87343 83.5002 9.97343 83.2282 9.97343ZM83.7442 10.8494L82.5802 17.4614H81.2122L82.3762 10.8494H83.7442ZM87.1482 16.2374L89.9682 10.8494H91.4442L87.7602 17.4614H86.1042L84.7602 10.8494H86.2242L87.1482 16.2374ZM95.3223 10.7414C96.1463 10.7414 96.8023 10.9734 97.2903 11.4374C97.7863 11.9014 98.0343 12.5254 98.0343 13.3094C98.0343 13.4934 98.0143 13.7134 97.9743 13.9694C97.9423 14.1454 97.8863 14.3614 97.8063 14.6174H92.7543C92.7463 14.6734 92.7423 14.7574 92.7423 14.8694C92.7423 15.3414 92.8863 15.7174 93.1743 15.9974C93.4703 16.2774 93.8543 16.4174 94.3263 16.4174C95.0703 16.4174 95.6423 16.1094 96.0423 15.4934H97.5183C97.2143 16.1014 96.7663 16.6014 96.1743 16.9934C95.5823 17.3774 94.8983 17.5694 94.1223 17.5694C93.5703 17.5694 93.0863 17.4614 92.6703 17.2454C92.2543 17.0294 91.9303 16.7214 91.6983 16.3214C91.4663 15.9134 91.3503 15.4374 91.3503 14.8934C91.3503 14.6614 91.3743 14.4134 91.4223 14.1494C91.5423 13.4694 91.7863 12.8734 92.1543 12.3614C92.5223 11.8414 92.9783 11.4414 93.5223 11.1614C94.0743 10.8814 94.6743 10.7414 95.3223 10.7414ZM96.6063 13.6334C96.6223 13.4894 96.6303 13.3854 96.6303 13.3214C96.6303 12.8814 96.4823 12.5334 96.1863 12.2774C95.8983 12.0214 95.5223 11.8934 95.0583 11.8934C94.5703 11.8934 94.1303 12.0494 93.7383 12.3614C93.3463 12.6734 93.0783 13.0974 92.9343 13.6334H96.6063ZM101.025 12.0134C101.297 11.6134 101.617 11.3014 101.985 11.0774C102.361 10.8534 102.777 10.7414 103.233 10.7414L102.981 12.1574H102.633C102.105 12.1574 101.681 12.2894 101.361 12.5534C101.041 12.8174 100.817 13.2734 100.689 13.9214L100.065 17.4614H98.6965L99.8605 10.8494H101.229L101.025 12.0134ZM105.21 10.8494L106.182 15.8894L109.002 10.8494H110.418L104.658 20.5694H103.242L105.15 17.3534L103.686 10.8494H105.21Z" fill="white"/>
<defs>
<filter id="filter0_d_649_46" x="0.84967" y="0.461426" width="118.817" height="28" filterUnits="userSpaceOnUse" color-interpolation-filters="sRGB">
<feFlood flood-opacity="0" result="BackgroundImageFix"/>
<feColorMatrix in="SourceAlpha" type="matrix" values="0 0 0 0 0 0 0 0 0 0 0 0 0 0 0 0 0 0 127 0" result="hardAlpha"/>
<feOffset dy="1"/>
<feGaussianBlur stdDeviation="1.5"/>
<feComposite in2="hardAlpha" operator="out"/>
<feColorMatrix type="matrix" values="0 0 0 0 0 0 0 0 0 0 0 0 0 0 0 0 0 0 0.15 0"/>
<feBlend mode="normal" in2="BackgroundImageFix" result="effect1_dropShadow_649_46"/>
<feBlend mode="normal" in="SourceGraphic" in2="effect1_dropShadow_649_46" result="shape"/>
</filter>
</defs>
</svg>
