<svg width="28" height="27" viewBox="0 0 28 27" fill="none" xmlns="http://www.w3.org/2000/svg">
<path d="M15.3334 24.1667V9.23335C16.0001 8.96669 16.6667 8.56669 17.0667 8.03335L21.7334 9.76669L17.8667 18.8334C17.2001 21.5 19.2001 22.8334 22.5334 22.8334C25.8667 22.8334 28.0001 21.5 27.2001 18.8334L23.7334 10.4334L24.9334 10.8334L25.8667 8.30002L18.0001 5.50002C18.0001 3.90002 17.0667 2.30002 15.3334 1.63335C13.7334 0.966687 12.0001 1.63335 10.9334 2.83335L3.20008 0.166687L2.26675 2.56669L4.40008 3.36669L0.800081 12.1667C0.133415 14.8334 2.13341 16.1667 5.46675 16.1667C8.80008 16.1667 10.9334 14.8334 10.1334 12.1667L6.80008 4.30002L10.0001 5.50002C10.0001 7.10002 10.9334 8.70002 12.6667 9.36669V24.1667H0.666748V26.8334H27.3334V24.1667H15.3334ZM24.5334 18.8334H20.5334L22.5334 13.7667L24.5334 18.8334ZM7.46675 12.1667H3.46675L5.46675 7.10002L7.46675 12.1667ZM12.8001 5.10002C13.0667 4.43335 13.8667 4.03335 14.5334 4.30002C15.2001 4.56669 15.6001 5.36669 15.3334 6.03335C15.0667 6.70002 14.2667 7.10002 13.6001 6.83335C12.9334 6.56669 12.5334 5.76669 12.8001 5.10002Z" fill="#4E4E4E"/>
</svg>
