<svg width="20" height="20" viewBox="0 0 20 20" fill="none" xmlns="http://www.w3.org/2000/svg">
<path d="M10 0C4.36 0 0 4.13 0 9.7C0 12.61 1.19 15.14 3.14 16.87C3.3 17 3.4 17.22 3.41 17.44L3.46 19.22C3.5 19.79 4.07 20.16 4.59 19.93L6.57 19.06C6.74 19 6.93 18.97 7.1 19C8 19.27 9 19.4 10 19.4C15.64 19.4 20 15.27 20 9.7C20 4.13 15.64 0 10 0ZM16 7.46L13.07 12.13C12.6 12.86 11.6 13.05 10.9 12.5L8.56 10.77C8.35 10.61 8.05 10.61 7.84 10.77L4.68 13.17C4.26 13.5 3.71 13 4 12.54L6.93 7.87C7.4 7.14 8.4 6.95 9.1 7.47L11.44 9.23C11.66 9.39 11.95 9.39 12.16 9.23L15.32 6.83C15.74 6.5 16.29 7 16 7.46Z" fill="white"/>
</svg>
