<svg width="20" height="19" viewBox="0 0 20 19" fill="none" xmlns="http://www.w3.org/2000/svg">
<path d="M17.333 3.66667H2.66634V1.83333H17.333M17.333 12.8333H2.66634V7.33333H17.333M17.333 0H2.66634C1.64884 0 0.833008 0.815833 0.833008 1.83333V12.8333C0.833008 13.3196 1.02616 13.7859 1.36998 14.1297C1.7138 14.4735 2.18011 14.6667 2.66634 14.6667H17.333C17.8192 14.6667 18.2856 14.4735 18.6294 14.1297C18.9732 13.7859 19.1663 13.3196 19.1663 12.8333V1.83333C19.1663 0.815833 18.3413 0 17.333 0ZM5.41634 16.5H7.24967V18.3333H5.41634V16.5ZM9.08301 16.5H10.9163V18.3333H9.08301V16.5ZM12.7497 16.5H14.583V18.3333H12.7497V16.5Z" fill="white"/>
</svg>
