<svg width="20" height="20" viewBox="0 0 20 20" fill="none" xmlns="http://www.w3.org/2000/svg">
<path d="M10.04 0C4.57999 0 0.129988 4.45 0.129988 9.91C0.129988 11.66 0.589988 13.36 1.44999 14.86L0.0499878 20L5.29999 18.62C6.74999 19.41 8.37999 19.83 10.04 19.83C15.5 19.83 19.95 15.38 19.95 9.92C19.95 7.27 18.92 4.78 17.05 2.91C15.18 1.03 12.69 0 10.04 0ZM10.05 1.67C12.25 1.67 14.31 2.53 15.87 4.09C17.42 5.65 18.28 7.72 18.28 9.92C18.28 14.46 14.58 18.15 10.04 18.15C8.55999 18.15 7.10999 17.76 5.84999 17L5.54999 16.83L2.42999 17.65L3.25999 14.61L3.05999 14.29C2.23999 13 1.79999 11.47 1.79999 9.91C1.80999 5.37 5.49999 1.67 10.05 1.67ZM6.52999 5.33C6.36999 5.33 6.09999 5.39 5.86999 5.64C5.64999 5.89 4.99999 6.5 4.99999 7.71C4.99999 8.93 5.88999 10.1 5.99999 10.27C6.13999 10.44 7.75999 12.94 10.25 14C10.84 14.27 11.3 14.42 11.66 14.53C12.25 14.72 12.79 14.69 13.22 14.63C13.7 14.56 14.68 14.03 14.89 13.45C15.1 12.87 15.1 12.38 15.04 12.27C14.97 12.17 14.81 12.11 14.56 12C14.31 11.86 13.09 11.26 12.87 11.18C12.64 11.1 12.5 11.06 12.31 11.3C12.15 11.55 11.67 12.11 11.53 12.27C11.38 12.44 11.24 12.46 11 12.34C10.74 12.21 9.93999 11.95 8.99999 11.11C8.25999 10.45 7.76999 9.64 7.61999 9.39C7.49999 9.15 7.60999 9 7.72999 8.89C7.83999 8.78 7.99999 8.6 8.09999 8.45C8.22999 8.31 8.26999 8.2 8.34999 8.04C8.42999 7.87 8.38999 7.73 8.32999 7.61C8.26999 7.5 7.76999 6.26 7.55999 5.77C7.35999 5.29 7.15999 5.35 6.99999 5.34C6.85999 5.34 6.69999 5.33 6.52999 5.33Z" fill="white"/>
</svg>
